<?xml version="1.0" standalone="no"?>
<!DOCTYPE svg PUBLIC "-//W3C//DTD SVG 20010904//EN"
 "http://www.w3.org/TR/2001/REC-SVG-20010904/DTD/svg10.dtd">
<svg version="1.0" xmlns="http://www.w3.org/2000/svg"
 width="500.000000pt" height="500.000000pt" viewBox="0 0 500.000000 500.000000"
 preserveAspectRatio="xMidYMid meet">

<g transform="translate(0.000000,500.000000) scale(0.100000,-0.100000)"
fill="#000000" stroke="none">
<path d="M1410 3330 c0 -5 14 -10 30 -10 43 0 87 -25 110 -63 19 -31 20 -55
20 -656 0 -608 -1 -624 -20 -656 -22 -36 -73 -65 -114 -65 -14 0 -26 -4 -26
-10 0 -6 83 -10 230 -10 147 0 230 4 230 10 0 6 -11 10 -25 10 -33 0 -73 21
-105 55 l-25 27 -3 626 c-2 593 -1 629 16 661 21 39 73 71 114 71 16 0 28 5
28 10 0 6 -83 10 -230 10 -147 0 -230 -4 -230 -10z"/>
<path d="M2210 3330 c0 -5 9 -10 21 -10 37 0 59 -19 59 -52 0 -25 -45 -87
-256 -350 l-256 -320 20 -21 c11 -12 146 -157 301 -322 l281 -300 0 -190 c0
-161 -3 -195 -18 -224 -23 -45 -59 -71 -110 -78 -23 -3 -42 -10 -42 -14 0 -5
106 -9 235 -9 150 0 235 4 235 10 0 6 -11 10 -25 10 -42 0 -91 26 -116 61 -21
29 -24 47 -27 156 -3 68 -1 123 4 123 4 0 33 -22 64 -49 182 -158 346 -232
546 -247 l89 -7 110 -106 c61 -59 148 -132 195 -163 156 -104 331 -156 480
-143 146 12 158 27 36 44 -133 18 -233 59 -370 149 -100 66 -159 124 -568 560
-256 272 -366 396 -361 405 4 8 122 145 261 305 231 265 258 293 314 321 36
18 77 31 99 31 21 0 41 5 44 10 4 7 -72 10 -219 10 -144 0 -226 -4 -226 -10 0
-5 13 -10 28 -10 32 0 62 -27 62 -56 0 -10 -113 -161 -251 -334 -138 -173
-253 -320 -256 -327 -3 -7 123 -149 280 -315 157 -167 284 -304 282 -306 -2
-2 -35 8 -75 22 -157 54 -319 171 -477 344 l-94 102 3 388 c3 354 5 390 21
415 24 38 75 67 115 67 17 0 32 5 32 10 0 6 -85 10 -236 10 -130 0 -233 -4
-230 -9 3 -4 24 -11 47 -14 50 -7 95 -46 110 -97 6 -21 9 -150 7 -333 l-3
-298 -224 239 c-123 132 -222 244 -221 248 2 11 403 477 480 558 65 69 113 96
186 103 30 3 54 10 54 14 0 5 -99 9 -220 9 -140 0 -220 -4 -220 -10z"/>
</g>
</svg>
